<svg xmlns="http://www.w3.org/2000/svg" width="579.4" height="577.56" viewBox="0 0 579.4 577.56"><defs><style>.cls-1{fill:#5f2d10;}.cls-2{fill:#e5cdb2;}.cls-3{fill:#a07962;}.cls-4{fill:#d4ae8a;}</style></defs><g id="Layer_2" data-name="Layer 2"><g id="Layer_1-2" data-name="Layer 1"><path class="cls-1" d="M432.08,255a150.74,150.74,0,0,0-44-74c-39-35.64-84.45-38.6-97-39V0a282.5,282.5,0,0,1,102,18c57.56,21.67,95.18,57.52,116,82a288.32,288.32,0,0,1,61.5,123.5Z"/><path class="cls-2" d="M218.1,416.06c8.59,4.63,58.52,30.43,117.93,10.75,11.9-3.94,55-19.93,81.42-66.49,26.29-46.38,18-91.38,15.63-102.31l139-31a283.57,283.57,0,0,1,4.57,103.31C565.34,410.18,522.5,462.85,504.08,483c-72.61,79.49-165.22,91-184,93-85.4,8.93-149.76-23-173-36Q182.6,478,218.1,416.06Z"/><path class="cls-3" d="M162.08,359l-126,69a267.31,267.31,0,0,0,107.5,110l71-124a149.38,149.38,0,0,1-52.5-55Z"/><path class="cls-4" d="M160.58,356c-2.74-5.23-35.86-71.15.5-138,25.11-46.15,73.8-75.22,127-76V0C178.82.2,78.93,60.07,30.08,155c-67.35,130.91-1.41,258.06,4.5,269Z"/></g></g></svg>