<svg xmlns="http://www.w3.org/2000/svg" width="578.9" height="579.3" viewBox="0 0 578.9 579.3"><defs><style>.cls-1{fill:#5f2d10;}.cls-2{fill:#a07962;}.cls-3{fill:#e5cdb2;}</style></defs><g id="Layer_2" data-name="Layer 2"><g id="Layer_1-2" data-name="Layer 1"><path class="cls-1" d="M147,311C160,386.44,226.23,439.44,297,436c82.74-4,144.88-84,135-164-8.3-67.2-65.95-122.37-139-129V0a300.09,300.09,0,0,1,92,15c18.38,6.06,86.89,29.61,137,93,68.55,86.71,68.59,204.87,35,291-8.71,22.33-34.69,86.36-102,133-124.38,86.18-268.33,28.79-275,26-87.67-36.67-130-106.54-140-124A290.5,290.5,0,0,1,5,332Z"/><path class="cls-2" d="M229,156a150.45,150.45,0,0,1,60.5-13.5V.5A254.43,254.43,0,0,0,168,27Z"/><path class="cls-3" d="M146.45,306.5l-142,21c-4.21-22.7-14.69-95.27,25-173C72.07,71,144.18,37.2,164.45,28.5q31,65,62,130c-11,5.19-45.2,23.1-66,64A143.27,143.27,0,0,0,146.45,306.5Z"/></g></g></svg>