<svg id="Ebene_1" data-name="Ebene 1" xmlns="http://www.w3.org/2000/svg" width="696.07mm" height="446.34mm" viewBox="0 0 1973.11 1265.22"><defs><style>.cls-1{fill:#fff;}.cls-2{fill:#407066;}</style></defs><path class="cls-1" d="M754.07,697.35c-11.94,0-20.87,7.08-23,23.54h43.36c0-13.69-5.83-23.54-20.34-23.54"/><path class="cls-1" d="M1252.26,697.35c-11.91,0-20.84,7.08-23,23.54h43.45c0-13.69-5.87-23.54-20.42-23.54"/><path class="cls-1" d="M1362.55,700.13c-13.89,0-24.93,10.47-24.93,32.26,0,22.24,12.32,31.85,25.13,31.85,19.72,0,23.65-19.18,23.65-20.08V718.54c-.25-3.66-6.08-18.41-23.85-18.41"/><path class="cls-2" d="M1475.27,876.53c-37.66,30.83-98,46.51-179.36,46.51q-22.2,0-45.56-1.54c-64.69-4.2-129-14.3-191.31-24-34.47-5.5-68.45-10.8-102.39-15.2-45.68-5.9-82.38-8.59-115.7-8.59-114.09,0-187.63,35.52-218.68,105.49-.37.86-.74,1.75-1.07,2.65-29.76-48.55-55.64-94.78-79-140.48-26.7-52.79-65.68-132.82-94-218.73-23.89-72-46.92-158.48-37-253.55,3.77-36.9,13.52-68.1,30.47-98,13.23-23.21,31.38-40.2,53.86-50.46,30.3-13.73,76.68-20.69,137.86-20.69,33.9,0,71.1,2,120.87,6.43,24.14,2.16,48.74,5,74.08,7.95,57.54,6.76,117.07,13.64,179.57,13.64,22.57,0,43.61-.85,64.2-2.65,87.55-7.61,152.2-36.78,197.09-89.08,77.43,104.72,140.63,209.36,192.8,319.34,30.92,65.25,63.91,144,74,234.16,9.17,82.23-11.79,146.83-60.77,186.83m11.41-432.32C1431.29,327.6,1363.78,217,1280.41,106.1l-11-14.66-10.91,14.79c-40.1,54.62-101.82,84.84-188.71,92.37-19.84,1.76-40.1,2.57-61.84,2.57-60.89,0-119.59-6.84-176.88-13.52-25.18-2.89-49.94-5.79-74.37-8-50.55-4.48-88.59-6.51-123.27-6.51-65.19,0-115.37,7.78-149.18,23.13C456.3,209,434,229.64,417.9,258c-18.81,33.32-29.56,67.78-33.73,108.43-10.38,100,13.48,189.92,38.24,264.58,28.89,87.58,68.41,168.83,95.49,222.31,27.69,54.42,57.46,112,93.13,171.44l41.63,72s-15.67-33.11-12.28-69.08c2.19-22.68,5.29-30.71,8.89-38.94C675.6,929.4,738.64,900.48,841,900.48c32.08,0,67.83,2.69,112.19,8.39,33.6,4.36,67.46,9.69,101.77,15,62.79,9.9,127.69,20.16,193.67,24.36,16.16,1,32,1.58,47.33,1.58,87.88,0,154.06-17.71,196.76-52.66,56.35-46.07,80.65-118.77,70.4-210.33-10.54-94-44.52-175.43-76.39-242.6"/><path class="cls-2" d="M679.11,602.84c59.23,0,108.67-28.43,108.67-115.31V327.82h-64V492.17c0,29.65-9.92,54.17-44.64,54.17s-45.89-24.52-45.89-54.17V327.82h-64l-.41,159.71c-.42,86.88,50.6,115.31,110.33,115.31"/><polygon class="cls-2" points="804.53 377.71 895.1 377.71 895.1 600.5 959.13 600.5 959.13 377.71 1046.28 377.71 1046.28 327.81 804.53 327.81 804.53 377.71"/><polygon class="cls-2" points="1276.64 550.61 1143.41 550.61 1276.64 377.71 1276.64 327.81 1063.18 327.81 1063.18 377.71 1198.76 377.71 1063.18 550.61 1063.18 600.51 1276.64 600.51 1276.64 550.61"/><path class="cls-2" d="M641.44,763c-22.57,0-44.23-14.54-44.23-53.64,0-38.49,17.53-54.5,39.93-54.5,31.87,0,33.2,31.4,33.2,31.4l23.35-3.62c0-6.44-4.55-49.82-57-49.82-39.23,0-65.73,25.26-65.73,76.54,0,51.48,29,75.68,69.2,75.68,37.49,0,53.82-27.21,53.82-27.21L679.39,742.7S665.33,763,641.44,763"/><path class="cls-2" d="M754.08,697.33c14.47,0,20.34,9.9,20.34,23.58H731.05c2.15-16.49,11.08-23.58,23-23.58M759,766c-11.66,0-26.83-6.64-28.4-29.69h66.18v-9.61c0-27.42-11.29-47.25-41.46-47.25-31.67,0-48.41,19-48.41,52.79,0,36.12,22.16,52.82,48.86,52.82,31,0,42-20.52,42-20.52l-12.11-12.22A32.74,32.74,0,0,1,759,766"/><path class="cls-2" d="M844.54,699.5V695c-2.2-10.27-9.18-15.16-19.14-15.16-6.7,0-10,1.27-10,1.27v16.66c7,0,8.93,3.17,8.93,8.59v77.35h23.44V724.91c.17-10.46,6.45-24.56,21.87-24.56,8.47,0,12.61,3,12.61,3L891.83,683s-5.25-3.62-15.42-3.62c-19.8,0-28.9,10.06-31.87,20.08"/><path class="cls-2" d="M961.2,764.25c-12.81,0-18.48-7.49-18.48-22.44V699.08h38V680.71h-38V648.37H919.33v32.34h-16v18.37h16V742.7c0,27.38,11.08,42.32,39.47,42.32a40.13,40.13,0,0,0,27.37-10.95L979,757.2a25.92,25.92,0,0,1-17.78,7"/><path class="cls-2" d="M1030.68,757.81V680.66h-23.44v80.16c0,16.5,8.06,23.71,22,23.71a36.17,36.17,0,0,0,10.38-1.22v-16.7c-6.74,0-8.93-3-8.93-8.8"/><path class="cls-2" d="M1019,660.2c8.48,0,15.21-6,15.21-14.34,0-8.19-6.73-14.09-15.21-14.09s-15,5.9-15,14.09c0,8.35,6.49,14.34,15,14.34"/><path class="cls-2" d="M1113.88,648.38c11.49,0,16.45,6.44,16.45,6.44l7.4-17.15s-8.27-10-26.25-10c-26.46,0-38.32,16.46-38.32,40.37v12.62h-15.25v18.37h15.25v84.68h23.4V699.05h35.09V680.68h-35.09V668.91c0-12.83,6.24-20.53,17.32-20.53"/><path class="cls-2" d="M1166.36,660.2c8.47,0,15.17-6,15.17-14.34,0-8.19-6.7-14.09-15.17-14.09s-14.93,5.9-14.93,14.09c0,8.35,6.49,14.34,14.93,14.34"/><path class="cls-2" d="M1178.06,757.81V680.66h-23.44v80.16c0,16.5,8.11,23.71,22,23.71a36.17,36.17,0,0,0,10.38-1.22v-16.7c-6.7,0-8.89-3-8.89-8.8"/><path class="cls-2" d="M1252.26,697.33c14.51,0,20.42,9.9,20.42,23.58h-43.44c2.19-16.49,11.12-23.58,23-23.58m5,68.63c-11.74,0-26.91-6.64-28.39-29.69H1295v-9.61c0-27.42-11.29-47.25-41.47-47.25-31.62,0-48.36,19-48.36,52.79,0,36.12,22.11,52.82,48.82,52.82,31,0,42.08-20.52,42.08-20.52l-12.15-12.22A32.55,32.55,0,0,1,1257.26,766"/><path class="cls-2" d="M1386.41,744.16c0,.9-3.92,20.08-23.68,20.08-12.77,0-25.09-9.61-25.09-31.85,0-21.79,11-32.26,24.92-32.26,17.74,0,23.57,14.75,23.85,18.37ZM1410,757.81V628.53h-23.61v63.05s-6.11-12.18-27.32-12.18c-23,0-44.68,15-44.68,53.2,0,36.57,21.49,52.42,42,52.42,23.23,0,30.58-14.55,32.78-18.41v2.56c1.94,10.92,8.72,15.36,19,15.36a36.32,36.32,0,0,0,10.42-1.22v-16.7c-6.7,0-8.68-3-8.68-8.8"/></svg>