<svg id="Ebene_1" data-name="Ebene 1" xmlns="http://www.w3.org/2000/svg" width="696.07mm" height="464.05mm" viewBox="0 0 1973.11 1315.41"><defs><style>.cls-1{fill:#1a1a18;}</style></defs><path class="cls-1" d="M769.87,308.65c21.06,1.66,31.42,2.74,52.06,5.22,6.7.84,13.07-2.09,14.2-6.61,3.61-13.86,5.44-20.84,9-34.84,1.16-4.57,4.54-4.13,7.41,1,9.07,15.62,13.52,23.51,22.15,39.35,2.86,5.17,10.53,10.12,17,11.43,19.3,3.93,26.33,5.69,49.68,11.92,6.43,1.73,7.47,4.66,2.8,6.3-14.36,5-21.77,6.33-36.58,12.37-4.76,1.9-6.5,7.79-3.86,13,8,15.93,11.76,24.45,19.13,41.51,2.44,5.59.13,6.21-5.15,1.52C901.46,396.57,893,391.24,876,379.29c-5.66-4-14.17-5.39-19-3.35-14.51,6.32-21.76,10.75-36.51,17.37-4.83,2.21-7.73.33-6.51-4.05,3.81-13.53,5.71-21.47,9.41-35,1.19-4.41-2.64-11-8.53-14.48-18.26-10.87-27.53-16.11-46.27-26.17-6.08-3.3-5.54-5.5,1.29-5"/><path class="cls-1" d="M564.64,458.81c25.11-5.25,32.86-6.48,56.62-9.88,7.1-1,14.32-5.26,16-9.93,5.17-14.48,7.6-21.64,12.67-35.9,1.65-4.6,5.13-4.83,7.73-.56,8.2,13.43,12.22,20.21,20.14,33.9,2.6,4.44,10.31,8.35,17,7.94,22.33-1.33,27.5-2.64,50.16-3.75,6.54-.32,7.37,2.23,2.73,5.24-17.39,11.28-22.69,15.89-38.1,25.18-4.93,3-7.38,8.53-4.88,13.2,7.5,14,11.21,21.07,18.43,35.54,2.41,4.76-.19,6.06-5.76,2.93a455.1,455.1,0,0,0-43.07-21.94c-5.83-2.72-15-2.29-20.33.92-16.28,9.73-21.73,13.23-43.61,26.94-6.07,3.79-9,3.19-6.78-2.65,7.08-18.16,9.53-22.54,15.36-37.06,1.9-4.72-1.78-10.34-7.92-12.23a432.16,432.16,0,0,0-48.45-12.34c-6.4-1.28-5.51-3.84,2-5.55"/><path class="cls-1" d="M456.15,649.24c22.94-1.88,34-2.3,55.32-2.36,6.94,0,15.35-3.79,18.81-8.54,10.76-14.59,16.06-21.81,26.61-36.11,3.4-4.61,6.68-4.43,7.38.41,2,15,2.92,22.55,4.52,37.79.52,4.91,6.21,9.37,12.42,10.24,21.61,3,25.06,3.58,46.85,7.62,5.88,1.1,6,3.73.39,5.64-17.43,5.79-26.33,9-44.64,16.07-5.9,2.29-11.23,8.38-11.14,13.4.1,15.44.11,23.21-.09,38.94-.11,5.18-3.2,6.37-7,2.68-11.52-11.09-17.45-16.52-29.86-26.88-4.08-3.34-12.82-3.79-19.38-1-20,8.66-30.13,13.3-50.67,22.91-6.77,3.16-9.13,1.77-5.08-3.25,12.1-15.18,18.19-22.72,30.08-37.64,4-4.88,3.4-11.3-1.2-14.13a329.56,329.56,0,0,0-37.59-20.32c-5.11-2.37-3.13-4.87,4.24-5.48"/><path class="cls-1" d="M824.47,903.11c-15.07,8.6-23.32,14.22-39.33,25.48-5.19,3.65-8.4,11.51-7.08,17.42,4,18,6,27.26,9.76,46.52,1.25,6.31-1.46,8.36-6,4.52-13.75-11.79-20.65-17.41-34.46-28.27-4.56-3.6-12.67-3.16-18,1-16.3,12.55-24.48,19-41,32.35-5.47,4.44-7.73,2.6-5.18-3.88,7.83-19.75,11.67-29.33,19.22-48.07,2.51-6.15.72-13.74-4-16.9C684,923.64,676.7,919,662,910.23c-4.78-2.83-3.52-5.78,2.71-6.61,19.38-2.45,28.94-3.41,47.94-4.93,6.17-.52,13.15-5.59,15.45-11.27C735.4,869.65,739,861,745.91,844.3c2.26-5.47,5.28-5.5,6.73-.26,4.44,16.24,6.61,24.51,11,41.52,1.38,5.51,7.48,9.93,13.46,9.83,18.57-.4,27.85-.79,45.88,1.32,5.87.62,6.42,3.64,1.54,6.4"/><path class="cls-1" d="M1072,931c-13.23,4.34-19.85,6.7-33.26,11.52-4.39,1.56-6.42,7.26-4.48,12.65,5.87,16.31,8.89,24.47,15,40.84,2.07,5.37-.18,6.35-5,2.09-14.51-12.86-21.65-19.42-35.72-32.68-4.69-4.37-12.07-6.49-16.57-4.57-13.63,5.74-20.53,8.76-34.58,15.33-4.65,2.18-7-.1-5.26-5,5.42-14.86,8-22,13.17-36,1.7-4.64-.64-12-5.14-16.39-13.76-13.68-20.57-20.58-34.09-34.28-4.34-4.45-3.48-6.7,2-5,16.83,5.31,25.25,8,42,13.4,5.4,1.78,11.12-.36,12.73-4.63,4.91-13.32,7.32-19.75,12-32.46,1.51-4.06,4.15-3.12,5.88,2.14,5.37,16.17,8.09,24.3,13.63,40.69,1.79,5.29,7.7,11.12,13.17,12.86,16.89,5.55,25.27,8.28,42.22,13.77,5.46,1.79,6.48,4.33,2.24,5.75"/><path class="cls-1" d="M1294.22,865.38c-14.82,5.67-21.7,8.62-36,14.21-4.62,1.79-6.41,7.47-3.87,12.68,7.58,15.73,11.48,23.6,19.57,39.11,2.6,5,.25,6.16-5.29,2.22-16.82-11.94-25.06-17.92-41-32.28-5.27-4.72-13.17-7.5-17.7-6-13.66,4.34-20.48,6.47-34.07,10.93-4.5,1.45-7.08-1-5.8-5.41,4.12-13.41,6.16-20,10.24-33.13,1.43-4.37-1.65-11.73-6.58-16.56-15.38-15-23-22.65-37.8-37.74-4.82-5-4.11-7,1.63-4.72,17.64,7.26,26.43,10.8,44.31,17.62,5.79,2.25,11.73.6,13.09-3.56,4.28-13.12,6.49-19.62,10.95-32.61,1.43-4.23,4.28-3.09,6.42,2.36,6.55,17,9.94,25.55,16.87,42.53,2.29,5.52,8.94,11.61,15,13.66,18.48,6.22,28.13,7.29,47.39,11.22,6.22,1.18,7.41,3.66,2.7,5.51"/><path class="cls-1" d="M1439.16,717.84c-14.13,9.83-21.08,14.38-34.8,22.74-4.35,2.71-6.34,8.27-4.35,12.36,6.15,12.48,9.29,18.61,15.6,30.66,2.15,4-.12,5.13-4.9,2.54-14.48-7.77-21.58-12-35.55-21-4.63-3-11.76-3.9-16-2-12.7,5.78-18.93,8.47-31.28,13.76-4.1,1.75-6.32,0-5-3.73,3.94-11.5,6-17.24,10.12-28.88,1.34-3.81-1.11-9.71-5.57-13.14-13.5-10.66-20.07-16.93-33.16-28.4-4.26-3.71-3.58-5.62,1.58-4.45,15.79,3.9,23.77,5.62,40.06,8.41,5.34.86,10.85-2,12.3-6.36,4.54-13.53,6.87-20.38,11.58-34.49,1.57-4.5,4.24-4.27,6,.51,5.44,14.93,8.36,22.35,14,37.13,1.82,4.77,7.83,9.06,13.37,9.3a363.76,363.76,0,0,0,43.78-.14c5.77-.28,6.72,2,2.22,5.24"/><path class="cls-1" d="M1556.81,494.23c-13.57,14.2-20.4,21.2-33.94,34.71-4.37,4.3-6.72,11.08-5.26,15,4.58,11.89,6.91,17.76,11.81,29.18,1.56,3.7-.64,6-5,4.91a253.8,253.8,0,0,1-32.09-9.64c-4.08-1.5-10.94.52-15.19,4.48-13,12-19.81,17.81-31.84,28.42-3.91,3.46-5.92,2.42-4.51-2.14,4.33-14.07,7.75-21.66,13-36.49,1.77-4.91,0-10.44-4-12.3-12-5.92-17.9-9.19-29.53-16-3.75-2.21-2.89-4.6,1.93-5.35,15-2.43,22.57-3.91,38-7.57,5-1.23,10.57-6.48,12.39-11.55,5.54-15.85,8.28-23.83,14-40.1,1.77-5.31,4.34-6.09,5.61-1.72,3.92,13.5,6,20.1,10.14,33,1.36,4.16,6.77,6.14,11.94,4.38,16.1-5.59,24.28-8.66,40.75-15.57,5.37-2.14,6.17-.25,1.74,4.29"/><path class="cls-1" d="M1301,346.91c13.92,1.2,19.31.86,35.61.32,4.75-.16,9.66-4.24,11-9.23,4-15.39,6.12-23.36,10.29-39.85,1.36-5.31,3.77-5.62,5.32-.69,4.8,15.31,7.22,22.62,12.08,37,1.56,4.62,6.7,7.51,11.53,7.51,13,0,21.25-.41,37.54-1.23,4.9-.25,6,1.69,1.77,5-12,9.42-18.15,12.65-29.87,22-4,3.19-5.55,9.81-4,14.17,4.88,13.14,7.35,19.59,12.35,32.2,1.65,4.17-.22,5.75-4.18,3.65-12-6.46-18-9.81-29.87-16.88-3.92-2.32-10.15-1.65-13.82,1.38-11.11,9.29-16.6,13.76-27.47,22.15-3.54,2.7-5.49,1.12-4.33-3.07,3.52-12.6,5.31-19.3,9.06-33.11,1.24-4.52-1.07-10.16-4.84-12.87-12.18-8.72-17.89-13.64-29.57-23.42-3.83-3.21-3.2-5.48,1.38-5.08"/><path class="cls-1" d="M1043,297.17c16.39,4.69,24.53,7.05,40.71,11.79,5.34,1.5,10.78-.67,12.16-4.79,4.44-13,6.64-19.6,11.23-33.31,1.46-4.36,4.23-3.78,6,1.46,5.56,16.22,8.23,24.34,13.57,40.42,1.69,5.2,7.34,10.66,12.56,12.2,16.28,4.72,24.31,7,40.54,11.58,5.26,1.51,6,4.15,1.72,6-13.24,5.47-19.67,8-32.55,12.84-4.17,1.56-6.21,7-4.62,12.07,4.91,15.54,7.27,23.18,12.1,38.39,1.56,5-.52,5.71-4.6,1.49-12.31-12.62-18.57-19-31.18-31.6-4.13-4.15-10.89-6.39-14.89-5-12.22,4.14-18.23,6.1-30.24,9.8-3.9,1.27-6.09-.82-4.76-4.59,4-11.43,6.12-17.21,10.23-29.09,1.36-3.91-1-10.46-5.34-14.51-13.4-12.5-20.24-18.68-34.06-30.71-4.51-4-3.87-5.88,1.4-4.39"/><path class="cls-1" d="M1684.32,287.46c-11.9,10.85-18.16,16.47-30.93,28.16-4.16,3.8-6.46,9.63-5,12.82,4.38,9.71,6.64,14.4,11.48,23.37,1.61,2.92-.56,5-4.81,4.48a314.58,314.58,0,0,1-31.47-4.94c-4.08-.82-10.93,1.75-15.33,5.79-13.31,12.21-20,18.4-33.64,30.71-4.45,4-6.52,3.51-4.58-1.16,6-14.11,9-21.23,14.8-35.36,2-4.62.36-9.4-3.56-10.65-12-3.67-17.89-5.81-29.57-10.45-3.75-1.51-2.74-3.92,2.34-5.39,15.51-4.41,23.29-6.78,38.82-11.6,5-1.57,10.67-6.71,12.62-11.37,5.86-14.54,8.86-21.76,14.62-36.29,1.94-4.68,4.31-5.3,5.39-1.42,3.29,11.8,5,17.5,8.81,28.52,1.23,3.57,6.22,5.05,11.16,3.52,15.2-5,22.71-7.51,37.31-12.23,4.73-1.53,5.45,0,1.58,3.49"/><path class="cls-1" d="M1158.1,545.52c8.7-2.33,9.93-6.76-.35-6.22-17.64.88-223.09,48.17-401.16,152.05-193.77,113-252.34,169.35-293.72,201.42-10.95,8.49-19.05,8.63-21,3.44-6.61-17.62-10.75-27.67-16.14-44.18-1.64-5-6.41-4.47-8.54,2.55-7.25,23.93-10.72,38.53-17.79,60.12-2.24,6.92-4.61,14.52-17.47,23.47-25.44,17.69-30.72,21.14-46.58,32-5.76,3.91-8.73,8.22,2.75,10.29,11,2,13.23,2.42,28.14,5.16,11.9,2.19,8,10.25,6.28,17.26-4.84,20-6.91,28.09-13.35,48.68-2.18,6.76.6,7.63,6.12,1.87,16.93-17.68,22.43-23.64,40.29-42.25,6.74-7,13-15.07,20.11-13.8,17.47,3.15,19.57,3.68,44.05,8.31,10.85,2.05,10.78-2.95,7.9-10.08-8.38-20.76-6.83-18-13.19-35.59-2-5.62-2.39-16.1,4-22.28C570.51,838.35,612.77,805.92,753.09,714.4,863,642.71,1009.07,585.76,1158.1,545.52Z"/></svg>