<svg id="Ebene_1" data-name="Ebene 1" xmlns="http://www.w3.org/2000/svg" width="696.07mm" height="446.34mm" viewBox="0 0 1973.11 1265.22"><path d="M767.62,823.46A316.21,316.21,0,0,1,669,593.64c0-175.13,142-317.1,317.11-317.1a317.93,317.93,0,0,1,88.12,12.39c14.08,4.05,34.38.93,45.7-18.64s73.6-129.28,84-147.89c14.32-25.7-.63-52.19-33.24-52.19H958.21c-289,0-523.28,234.43-523.28,523.43A520.86,520.86,0,0,0,540,908.19c-21.66,37.88-81.39,144-100.15,176.68-10,17.39-4.9,32.37,16.82,32.37H616c19.1,0,27.5-8.68,36.37-24,9.88-18.08,95.52-169,121.45-213.71,8.36-14.43,17.71-33.35-6.17-56"/><path d="M1204.65,364a316.18,316.18,0,0,1,98.63,229.81c0,175.14-142,317.11-317.11,317.11a318.31,318.31,0,0,1-88.12-12.4c-14.08-4-34.37-.93-45.69,18.65s-73.6,129.27-84,147.88c-14.32,25.7.63,52.19,33.23,52.19h212.44c289,0,523.28-234.43,523.28-523.43a520.88,520.88,0,0,0-105.09-314.55c21.65-37.88,81.39-143.95,100.14-176.68,10-17.39,4.91-32.37-16.81-32.37H1356.3c-19.09,0-27.49,8.69-36.36,24-9.89,18.07-95.52,169-121.46,213.72-8.36,14.42-17.71,33.33,6.17,56"/><path d="M1016.2,414a30.12,30.12,0,1,1-30.11-30.12A30.11,30.11,0,0,1,1016.2,414"/><rect x="808.89" y="715.02" width="354.58" height="43.07"/><path d="M754.58,632.7c12.32,18,22.35,28.06,34,40.44l20.65,22.3h354.72l20.26-22.3c11.61-12.38,23.7-25.14,34-40.44,48.49-72.3-9-148.51-75.35-143.46-1.22.09-2.42.11-3.63.18-2.06-3.36-4.37-6.77-7-10.24-21.24-28.31-56.78-40.89-92.75-32.84a95.35,95.35,0,0,0-53.09,32.12,95.36,95.36,0,0,0-53.08-32.12c-36-8-71.52,4.53-92.75,32.84-2.6,3.47-4.91,6.88-7,10.24-1.21-.07-3.64-.18-3.64-.18-60.48-6.44-126.77,68.27-75.34,143.46M963.84,528.15c-40.56-3.21-66.42-15.06-87.79-24.92l-.23-.1C887.14,489.31,905,483.59,924,487.85c16,3.59,34.85,15.68,39.72,38.82.06.4.1.92.14,1.48m133.06-25-.22.1c-21.38,9.86-47.24,21.71-87.8,24.92,0-.56.09-1.08.14-1.48,4.88-23.14,23.68-35.23,39.72-38.82,19-4.26,36.85,1.46,48.16,15.28m-17.11,149.78c18.07-19.1,39.45-45.1,44.86-51.91,5-6.32,30.14-33.37,28.67-68.56,30.56,4,40.34,29.23,40.34,42.29a64.38,64.38,0,0,1-10.72,34.09c-8.45,12.48-18.82,23.53-29.79,35.24,0,0-4.11,4.48-8.14,8.85Zm-72-82c47.39-3.13,79.33-16.52,101.86-26.81-2.42,9.45-12.29,22.87-16.22,27.7-14.72,18.08-54.57,62.59-72.46,81.14h-13.18s-.13-64.65,0-82m-56.1,82c-17.88-18.55-61.81-67.71-69.54-77.46S865.46,553.52,863,544.07c22.53,10.29,54.47,23.68,101.86,26.81.14,17.38,0,82,0,82ZM779.06,574.73c0-18.85,15.27-39,40.34-42.29-1.29,31,14.77,50.72,26.62,65.85,11.24,14.36,28.85,35.52,46.91,54.62H827.71l-8.13-8.85c-11-11.71-21.34-22.76-29.8-35.24a63.82,63.82,0,0,1-10.72-34.09"/></svg>