<svg id="Layer_1" data-name="Layer 1" xmlns="http://www.w3.org/2000/svg" xmlns:xlink="http://www.w3.org/1999/xlink" width="2214" height="1572" viewBox="0 0 2214 1572"><defs><style>.cls-1{fill:#5f2c10;}.cls-2{fill:#e4cdb2;}.cls-3{fill:#a07a62;}.cls-4{fill:#d4ae8a;}</style></defs><g id="_4Upm6J.tif" data-name="4Upm6J.tif"><image id="Layer_0" data-name="Layer 0" width="904" height="648" transform="translate(-68 -86) scale(2.65)" xlink:href="Artboard%2051.png"/></g><rect class="cls-1" x="1633" y="1061" width="102.83" height="102.83" rx="29.32"/><rect class="cls-2" x="1633" y="1190.72" width="102.83" height="102.83" rx="29.32"/><rect class="cls-3" x="1633" y="1320.45" width="102.83" height="102.83" rx="29.32"/><path d="M1774.5,1108.59h6.65V1117a11.47,11.47,0,0,1-1.46,6.13,8.63,8.63,0,0,1-3.89,3.42,13.56,13.56,0,0,1-5.54,1.08,12.06,12.06,0,0,1-5.34-1,3,3,0,0,1-1.87-2.79,3.6,3.6,0,0,1,.38-1.71,6.66,6.66,0,0,1,.69-1.07q1.08.38,2.28.69a9.54,9.54,0,0,0,2.53.32,4.94,4.94,0,0,0,5.57-5.69Zm6.65,2.34h-6.65v-22.46c.3-.09.73-.18,1.3-.29a10.05,10.05,0,0,1,1.74-.16,4.48,4.48,0,0,1,2.72.67,2.86,2.86,0,0,1,.89,2.43Z"/><path d="M1801.65,1096.38q5.88,0,9.33,2.56t3.45,8.07v14.74a3.68,3.68,0,0,1-.63,2.28,5.56,5.56,0,0,1-1.77,1.45,17.31,17.31,0,0,1-4.27,1.65,23.39,23.39,0,0,1-5.92.7c-4.09,0-7.29-.81-9.59-2.41a8,8,0,0,1-3.45-7,7.88,7.88,0,0,1,2.72-6.43,13.85,13.85,0,0,1,7.72-2.68l8.8-.89v-1.46a4.7,4.7,0,0,0-1.8-4.08,8.54,8.54,0,0,0-5-1.3,17.19,17.19,0,0,0-4.88.7,28.47,28.47,0,0,0-4.17,1.58,4.48,4.48,0,0,1-1.05-1.2,3,3,0,0,1-.47-1.58,3.23,3.23,0,0,1,2.21-3,17.64,17.64,0,0,1,4.08-1.26A24.67,24.67,0,0,1,1801.65,1096.38Zm.19,26.32a14.18,14.18,0,0,0,3.89-.47,11.57,11.57,0,0,0,2.37-.92v-8.16l-7,.75a8.66,8.66,0,0,0-4.4,1.24,3.51,3.51,0,0,0-1.49,3.07,3.85,3.85,0,0,0,1.65,3.29A8.49,8.49,0,0,0,1801.84,1122.7Z"/><path d="M1824.18,1132.51a3.74,3.74,0,0,1-3.17,1.9,4,4,0,0,1-2.91-1.2c.47-1.23.94-2.63,1.42-4.21s.93-3.19,1.33-4.81.73-3,1-4.27a8.25,8.25,0,0,1,1.46-.54,6.47,6.47,0,0,1,1.71-.22,3.54,3.54,0,0,1,2.21.63,2.55,2.55,0,0,1,.83,2.15,12.56,12.56,0,0,1-.67,3.58,31.22,31.22,0,0,1-1.58,4A23.51,23.51,0,0,1,1824.18,1132.51Z"/><path d="M1852.84,1095.62v7.78h-6.33v-8.1A11.77,11.77,0,0,1,1848,1089a8.78,8.78,0,0,1,4.24-3.55,16.55,16.55,0,0,1,6.36-1.14,13.9,13.9,0,0,1,6,1,3.09,3.09,0,0,1,2.09,2.78,3.31,3.31,0,0,1-.35,1.55,4.78,4.78,0,0,1-.86,1.17,11.79,11.79,0,0,0-2.75-.92,15.5,15.5,0,0,0-3.26-.35q-3.54,0-5.06,1.43T1852.84,1095.62Zm-6.33,5.31H1853v25.82a6.54,6.54,0,0,1-1.23.35,9.37,9.37,0,0,1-1.74.16,4.29,4.29,0,0,1-2.66-.7,2.72,2.72,0,0,1-.89-2.28Zm5.26,3.29v-5.12h13a3.28,3.28,0,0,1,.48,1,5.21,5.21,0,0,1,.22,1.52,2.77,2.77,0,0,1-.6,2,2.29,2.29,0,0,1-1.74.63Zm27.33,9.75-6.52-.51v-27.65c.3-.09.72-.19,1.27-.32a8,8,0,0,1,1.71-.19,4.2,4.2,0,0,1,2.69.7,2.84,2.84,0,0,1,.85,2.34Zm-6.52-3.8,6.52.57v16a4.92,4.92,0,0,1-1.2.35,9.87,9.87,0,0,1-1.77.16,4.29,4.29,0,0,1-2.66-.7,2.72,2.72,0,0,1-.89-2.28Z"/><path d="M1891,1115.68l-.32-4.75,18-2.53a7.72,7.72,0,0,0-2.08-4.94,7,7,0,0,0-5.38-2,7.67,7.67,0,0,0-5.89,2.53q-2.34,2.54-2.4,7.21l.12,2.41a9.78,9.78,0,0,0,3.23,6.74,10.85,10.85,0,0,0,7.15,2.24,13.83,13.83,0,0,0,4.87-.82,15.59,15.59,0,0,0,3.55-1.77,3.62,3.62,0,0,1,1.23,1.2,3,3,0,0,1,.48,1.65,3.26,3.26,0,0,1-1.4,2.53,9.83,9.83,0,0,1-3.76,1.77,20.89,20.89,0,0,1-5.35.63,19.37,19.37,0,0,1-8.57-1.8,13,13,0,0,1-5.73-5.38,17.52,17.52,0,0,1-2-8.76,18.11,18.11,0,0,1,1.13-6.62,14.06,14.06,0,0,1,3.11-4.84,12.93,12.93,0,0,1,4.61-3,15.79,15.79,0,0,1,5.7-1,14.59,14.59,0,0,1,7.06,1.67,12.12,12.12,0,0,1,4.77,4.65,13.37,13.37,0,0,1,1.71,6.78,3.18,3.18,0,0,1-.76,2.34,3.35,3.35,0,0,1-2.15.88Z"/><path d="M1928.14,1103.59v9.3h-6.51v-9.43a4.41,4.41,0,0,1,.66-2.5,7.21,7.21,0,0,1,2-1.86,16.42,16.42,0,0,1,4.65-1.9,24.5,24.5,0,0,1,6.3-.76q5.51,0,5.51,3.1a4.36,4.36,0,0,1-.23,1.42,3.82,3.82,0,0,1-.53,1.11c-.43-.08-1-.17-1.62-.25a14.57,14.57,0,0,0-2-.13,18.09,18.09,0,0,0-4.71.57A16,16,0,0,0,1928.14,1103.59Zm-6.51,6.58,6.51.57v16a6.32,6.32,0,0,1-1.23.35,9.37,9.37,0,0,1-1.74.16,4.29,4.29,0,0,1-2.66-.7,2.71,2.71,0,0,1-.88-2.28Z"/><path d="M1948.2,1115.68l-.31-4.75,18-2.53a7.73,7.73,0,0,0-2.09-4.94,7,7,0,0,0-5.38-2,7.66,7.66,0,0,0-5.88,2.53q-2.35,2.54-2.41,7.21l.13,2.41a9.7,9.7,0,0,0,3.23,6.74,10.83,10.83,0,0,0,7.15,2.24,13.87,13.87,0,0,0,4.87-.82A15.5,15.5,0,0,0,1969,1120a3.56,3.56,0,0,1,1.24,1.2,3.13,3.13,0,0,1,.47,1.65,3.25,3.25,0,0,1-1.39,2.53,9.88,9.88,0,0,1-3.77,1.77,20.81,20.81,0,0,1-5.34.63,19.41,19.41,0,0,1-8.58-1.8,13,13,0,0,1-5.73-5.38,17.52,17.52,0,0,1-2-8.76,17.9,17.9,0,0,1,1.14-6.62,14,14,0,0,1,3.1-4.84,13.06,13.06,0,0,1,4.62-3,15.74,15.74,0,0,1,5.69-1,14.59,14.59,0,0,1,7.06,1.67,12.08,12.08,0,0,1,4.78,4.65,13.37,13.37,0,0,1,1.71,6.78,3.23,3.23,0,0,1-.76,2.34,3.39,3.39,0,0,1-2.15.88Z"/><path d="M2003.76,1125.86a16.21,16.21,0,0,1-6.8-1.42,11.06,11.06,0,0,1-5-4.68,16.89,16.89,0,0,1-1.9-8.58,16.07,16.07,0,0,1,1.9-8.16,12.3,12.3,0,0,1,5.28-5,17.5,17.5,0,0,1,7.82-1.67,19.37,19.37,0,0,1,5.69.79A17.06,17.06,0,0,1,2015,1099a6.6,6.6,0,0,1,1.65,1.59,3.6,3.6,0,0,1,.63,2.15v19.68h-6.39v-19.3a12.32,12.32,0,0,0-2.34-1.05,10.68,10.68,0,0,0-3.36-.47,8.43,8.43,0,0,0-6.23,2.37c-1.58,1.58-2.37,4-2.37,7.12q0,5.31,2.34,7.47a8.29,8.29,0,0,0,5.82,2.15,8.56,8.56,0,0,0,4.18-.89,11.58,11.58,0,0,0,2.59-1.9l.25,5.45a9.94,9.94,0,0,1-3.06,1.7A13.8,13.8,0,0,1,2003.76,1125.86Zm7.15,1.52V1121h6.33v6.71a11.45,11.45,0,0,1-1.9,6.87,10.72,10.72,0,0,1-5.16,3.82,23.09,23.09,0,0,1-12.9.54,14.88,14.88,0,0,1-3.33-1.23,3.55,3.55,0,0,1-2-3.1,3.31,3.31,0,0,1,.47-1.81,3.52,3.52,0,0,1,1.11-1.1,15.33,15.33,0,0,0,3.86,1.8,16.21,16.21,0,0,0,5.13.79,10.25,10.25,0,0,0,6.23-1.64Q2010.91,1131,2010.91,1127.38Z"/><path d="M2036.86,1096.38q5.88,0,9.33,2.56t3.45,8.07v14.74a3.68,3.68,0,0,1-.63,2.28,5.72,5.72,0,0,1-1.78,1.45,17.15,17.15,0,0,1-4.27,1.65,23.26,23.26,0,0,1-5.91.7q-6.15,0-9.59-2.41a8,8,0,0,1-3.45-7,7.88,7.88,0,0,1,2.72-6.43,13.85,13.85,0,0,1,7.72-2.68l8.8-.89v-1.46a4.68,4.68,0,0,0-1.81-4.08,8.5,8.5,0,0,0-5-1.3,17.17,17.17,0,0,0-4.87.7,29.06,29.06,0,0,0-4.18,1.58,4.46,4.46,0,0,1-1-1.2,2.91,2.91,0,0,1-.47-1.58,3.21,3.21,0,0,1,2.21-3,17.64,17.64,0,0,1,4.08-1.26A24.6,24.6,0,0,1,2036.86,1096.38Zm.19,26.32a14.18,14.18,0,0,0,3.89-.47,11.81,11.81,0,0,0,2.37-.92v-8.16l-7,.75a8.66,8.66,0,0,0-4.4,1.24,3.51,3.51,0,0,0-1.49,3.07,3.85,3.85,0,0,0,1.65,3.29A8.47,8.47,0,0,0,2037.05,1122.7Z"/><path d="M2084.76,1107.45v6.26h-6.52v-6a5.65,5.65,0,0,0-1.77-4.58,7.1,7.1,0,0,0-4.75-1.49,13,13,0,0,0-4,.57,14.37,14.37,0,0,0-3,1.33v10.18h-6.52v-10.37a4.31,4.31,0,0,1,.6-2.38,6.35,6.35,0,0,1,1.87-1.74,21.21,21.21,0,0,1,4.65-2,21.81,21.81,0,0,1,6.42-.88q6.14,0,9.59,2.75C2083.61,1101,2084.76,1103.74,2084.76,1107.45Zm-26.58,3h6.52v16.33a6.78,6.78,0,0,1-1.23.35,9.37,9.37,0,0,1-1.74.16,4.27,4.27,0,0,1-2.66-.7,2.72,2.72,0,0,1-.89-2.28Zm20.06,0h6.52v16.33a6.64,6.64,0,0,1-1.27.35,9.43,9.43,0,0,1-1.7.16,4.25,4.25,0,0,1-2.69-.7,2.77,2.77,0,0,1-.86-2.28Z"/><path d="M2105.77,1125.86a16.26,16.26,0,0,1-6.81-1.42,11.15,11.15,0,0,1-5-4.68,17,17,0,0,1-1.89-8.58,16.18,16.18,0,0,1,1.89-8.16,12.32,12.32,0,0,1,5.29-5,17.46,17.46,0,0,1,7.81-1.67,19.39,19.39,0,0,1,5.7.79A17.06,17.06,0,0,1,2117,1099a6.73,6.73,0,0,1,1.64,1.59,3.6,3.6,0,0,1,.64,2.15v19.68h-6.4v-19.3a12.32,12.32,0,0,0-2.34-1.05,10.61,10.61,0,0,0-3.35-.47,8.43,8.43,0,0,0-6.23,2.37c-1.59,1.58-2.38,4-2.38,7.12q0,5.31,2.35,7.47a8.29,8.29,0,0,0,5.82,2.15,8.49,8.49,0,0,0,4.17-.89,11.66,11.66,0,0,0,2.6-1.9l.25,5.45a10,10,0,0,1-3.07,1.7A13.74,13.74,0,0,1,2105.77,1125.86Zm7.15,1.52V1121h6.33v6.71a11.52,11.52,0,0,1-1.9,6.87,10.82,10.82,0,0,1-5.16,3.82,23.13,23.13,0,0,1-12.91.54,14.75,14.75,0,0,1-3.32-1.23,3.56,3.56,0,0,1-2-3.1,3.23,3.23,0,0,1,.48-1.81,3.42,3.42,0,0,1,1.11-1.1,15.16,15.16,0,0,0,3.86,1.8,16.19,16.19,0,0,0,5.12.79,10.23,10.23,0,0,0,6.23-1.64Q2112.92,1131,2112.92,1127.38Z"/><path d="M2130.64,1115.68l-.32-4.75,18-2.53a7.73,7.73,0,0,0-2.09-4.94,7,7,0,0,0-5.38-2,7.66,7.66,0,0,0-5.88,2.53q-2.34,2.54-2.41,7.21l.13,2.41a9.74,9.74,0,0,0,3.23,6.74,10.85,10.85,0,0,0,7.15,2.24,13.87,13.87,0,0,0,4.87-.82,15.59,15.59,0,0,0,3.55-1.77,3.62,3.62,0,0,1,1.23,1.2,3,3,0,0,1,.47,1.65,3.25,3.25,0,0,1-1.39,2.53,9.9,9.9,0,0,1-3.76,1.77,21,21,0,0,1-5.35.63,19.41,19.41,0,0,1-8.58-1.8,13,13,0,0,1-5.72-5.38,17.52,17.52,0,0,1-2-8.76,17.9,17.9,0,0,1,1.14-6.62,14,14,0,0,1,3.1-4.84,13.06,13.06,0,0,1,4.62-3,15.75,15.75,0,0,1,5.7-1,14.52,14.52,0,0,1,7.05,1.67,12.08,12.08,0,0,1,4.78,4.65,13.37,13.37,0,0,1,1.71,6.78,3.18,3.18,0,0,1-.76,2.34,3.37,3.37,0,0,1-2.15.88Z"/><path d="M1763.3,1266.73a13.21,13.21,0,0,0,2.56-1.52,5.16,5.16,0,0,0,1.59-2.15,9.87,9.87,0,0,0,.53-3.55v-19.36h6.52v20.31a12,12,0,0,1-1.26,6,8,8,0,0,1-3,3.13,6.79,6.79,0,0,1-3.26,1,3.27,3.27,0,0,1-2.72-1.11A4.42,4.42,0,0,1,1763.3,1266.73Zm3.93-47.21a3.57,3.57,0,0,1,1.13-2.72,4,4,0,0,1,2.85-1.08,3.78,3.78,0,0,1,2.79,1.08,3.71,3.71,0,0,1,1.07,2.72,3.73,3.73,0,0,1-3.86,3.8,3.92,3.92,0,0,1-2.85-1.11A3.61,3.61,0,0,1,1767.23,1219.52Zm7.27,25.75-6.52-.5v-16c.3-.09.72-.18,1.27-.29a9.87,9.87,0,0,1,1.77-.16,4.29,4.29,0,0,1,2.63.67,2.83,2.83,0,0,1,.85,2.37Z"/><path d="M1794.5,1227.68c3.92,0,7,.86,9.33,2.56s3.45,4.4,3.45,8.07v14.75a3.63,3.63,0,0,1-.63,2.27,5.58,5.58,0,0,1-1.77,1.46,18.23,18.23,0,0,1-4.28,1.65,23.28,23.28,0,0,1-5.91.69q-6.14,0-9.59-2.4a8,8,0,0,1-3.45-7,7.87,7.87,0,0,1,2.72-6.42,13.86,13.86,0,0,1,7.72-2.69l8.8-.88v-1.46a4.68,4.68,0,0,0-1.8-4.08,8.47,8.47,0,0,0-5-1.3,16.84,16.84,0,0,0-4.88.7,27.37,27.37,0,0,0-4.17,1.58,4.81,4.81,0,0,1-1-1.2,3,3,0,0,1-.47-1.59,3.22,3.22,0,0,1,2.21-3,17.63,17.63,0,0,1,4.08-1.27A25.43,25.43,0,0,1,1794.5,1227.68Zm.19,26.33a13.78,13.78,0,0,0,3.89-.48,10.5,10.5,0,0,0,2.37-.92v-8.16l-7,.76a8.77,8.77,0,0,0-4.4,1.23,3.52,3.52,0,0,0-1.49,3.07,3.84,3.84,0,0,0,1.65,3.29A8.41,8.41,0,0,0,1794.69,1254Z"/><path d="M1817,1263.81a3.72,3.72,0,0,1-3.17,1.9,4,4,0,0,1-2.91-1.2c.47-1.22.94-2.63,1.42-4.21s.93-3.18,1.33-4.81.73-3,1-4.27a8.25,8.25,0,0,1,1.46-.54,6.91,6.91,0,0,1,1.71-.22,3.48,3.48,0,0,1,2.21.64,2.53,2.53,0,0,1,.83,2.15,12.45,12.45,0,0,1-.67,3.57,31.22,31.22,0,0,1-1.58,4A22.13,22.13,0,0,1,1817,1263.81Z"/><path d="M1865.81,1238.76V1245h-6.51v-6a5.66,5.66,0,0,0-1.78-4.59,7.14,7.14,0,0,0-4.74-1.49,13,13,0,0,0-4,.57,15.15,15.15,0,0,0-3,1.33V1245h-6.51v-10.38a4.25,4.25,0,0,1,.6-2.37,6.3,6.3,0,0,1,1.86-1.74,20.84,20.84,0,0,1,4.66-2,21.75,21.75,0,0,1,6.42-.89q6.13,0,9.59,2.75C1864.66,1232.27,1865.81,1235,1865.81,1238.76Zm-26.57,3h6.51v16.33a6.42,6.42,0,0,1-1.23.34,8.58,8.58,0,0,1-1.74.16,4.29,4.29,0,0,1-2.66-.69,2.74,2.74,0,0,1-.88-2.28Zm20.06,0h6.51v16.33a6.41,6.41,0,0,1-1.26.34,8.7,8.7,0,0,1-1.71.16,4.27,4.27,0,0,1-2.69-.69,2.79,2.79,0,0,1-.85-2.28Z"/><path d="M1902.9,1243.38a17.87,17.87,0,0,1-1.84,8.29,13.11,13.11,0,0,1-5.19,5.47,17.11,17.11,0,0,1-15.79,0,13.42,13.42,0,0,1-5.25-5.44,17.58,17.58,0,0,1-1.87-8.32,17.37,17.37,0,0,1,1.9-8.33,13.58,13.58,0,0,1,5.29-5.44,15.66,15.66,0,0,1,7.87-1.93,15.41,15.41,0,0,1,7.79,1.93,13.48,13.48,0,0,1,5.22,5.44A17.6,17.6,0,0,1,1902.9,1243.38ZM1888,1232.93a7.35,7.35,0,0,0-6,2.79,11.87,11.87,0,0,0-2.25,7.66q0,4.93,2.19,7.68a8.07,8.07,0,0,0,12.18,0,12,12,0,0,0,2.21-7.65,12.16,12.16,0,0,0-2.18-7.66A7.32,7.32,0,0,0,1888,1232.93Z"/><path d="M1922.32,1257.17a16.25,16.25,0,0,1-6.8-1.42,11,11,0,0,1-5-4.69,16.87,16.87,0,0,1-1.9-8.57,16,16,0,0,1,1.9-8.16,12.24,12.24,0,0,1,5.28-5,17.37,17.37,0,0,1,7.82-1.68,19.71,19.71,0,0,1,5.69.79,16.54,16.54,0,0,1,4.24,1.87,6.4,6.4,0,0,1,1.65,1.58,3.62,3.62,0,0,1,.63,2.15v19.68h-6.39v-19.3a12.34,12.34,0,0,0-2.34-1,10.38,10.38,0,0,0-3.36-.48,8.44,8.44,0,0,0-6.23,2.38q-2.37,2.37-2.37,7.12,0,5.31,2.34,7.46a8.25,8.25,0,0,0,5.82,2.15,8.56,8.56,0,0,0,4.18-.88,11.58,11.58,0,0,0,2.59-1.9l.26,5.44a10.22,10.22,0,0,1-3.07,1.71A13.8,13.8,0,0,1,1922.32,1257.17Zm7.15,1.52v-6.39h6.33V1259a11.42,11.42,0,0,1-1.9,6.86,10.76,10.76,0,0,1-5.15,3.83,23.38,23.38,0,0,1-12.91.54,15.29,15.29,0,0,1-3.33-1.24,3.54,3.54,0,0,1-2-3.1,3.28,3.28,0,0,1,.47-1.8,3.56,3.56,0,0,1,1.11-1.11,15,15,0,0,0,3.86,1.81,16.5,16.5,0,0,0,5.13.79,10.18,10.18,0,0,0,6.23-1.65C1928.75,1262.84,1929.47,1261.09,1929.47,1258.69Z"/><path d="M1947.19,1247l-.32-4.74,18-2.53a7.78,7.78,0,0,0-2.09-4.94,7,7,0,0,0-5.38-2,7.69,7.69,0,0,0-5.89,2.54c-1.56,1.68-2.36,4.09-2.4,7.21l.13,2.4a9.69,9.69,0,0,0,3.22,6.74,10.87,10.87,0,0,0,7.15,2.25,13.88,13.88,0,0,0,4.88-.82,15.71,15.71,0,0,0,3.54-1.77,3.37,3.37,0,0,1,1.23,1.2,3,3,0,0,1,.48,1.64,3.28,3.28,0,0,1-1.39,2.53,10.1,10.1,0,0,1-3.77,1.78,20.84,20.84,0,0,1-5.35.63,19.37,19.37,0,0,1-8.57-1.8,13,13,0,0,1-5.73-5.38,17.58,17.58,0,0,1-2-8.77,17.85,17.85,0,0,1,1.14-6.61,14,14,0,0,1,3.1-4.84,12.91,12.91,0,0,1,4.62-3,16,16,0,0,1,5.69-1,14.48,14.48,0,0,1,7.06,1.68,12.06,12.06,0,0,1,4.77,4.65,13.33,13.33,0,0,1,1.71,6.77,3.15,3.15,0,0,1-.76,2.34,3.35,3.35,0,0,1-2.15.89Z"/><path d="M2004.4,1238.76V1245h-6.52v-6a5.66,5.66,0,0,0-1.77-4.59,7.18,7.18,0,0,0-4.75-1.49,13,13,0,0,0-4,.57,14.8,14.8,0,0,0-3,1.33V1245h-6.52v-10.38a4.25,4.25,0,0,1,.6-2.37,6.23,6.23,0,0,1,1.87-1.74,20.74,20.74,0,0,1,4.65-2,21.8,21.8,0,0,1,6.42-.89q6.14,0,9.59,2.75C2003.25,1232.27,2004.4,1235,2004.4,1238.76Zm-26.58,3h6.52v16.33a6.78,6.78,0,0,1-1.24.34,8.58,8.58,0,0,1-1.74.16,4.29,4.29,0,0,1-2.66-.69,2.74,2.74,0,0,1-.88-2.28Zm20.06,0h6.52v16.33a6.75,6.75,0,0,1-1.27.34,8.7,8.7,0,0,1-1.71.16,4.27,4.27,0,0,1-2.69-.69,2.79,2.79,0,0,1-.85-2.28Z"/><path d="M2025.4,1257.17a16.25,16.25,0,0,1-6.8-1.42,11.07,11.07,0,0,1-5-4.69,16.87,16.87,0,0,1-1.9-8.57,16,16,0,0,1,1.9-8.16,12.29,12.29,0,0,1,5.28-5,17.4,17.4,0,0,1,7.82-1.68,19.66,19.66,0,0,1,5.69.79,16.54,16.54,0,0,1,4.24,1.87,6.4,6.4,0,0,1,1.65,1.58,3.62,3.62,0,0,1,.63,2.15v19.68h-6.39v-19.3a12.34,12.34,0,0,0-2.34-1,10.36,10.36,0,0,0-3.35-.48,8.46,8.46,0,0,0-6.24,2.38q-2.37,2.37-2.37,7.12,0,5.31,2.34,7.46a8.25,8.25,0,0,0,5.82,2.15,8.56,8.56,0,0,0,4.18-.88,11.58,11.58,0,0,0,2.59-1.9l.26,5.44a10.22,10.22,0,0,1-3.07,1.71A13.8,13.8,0,0,1,2025.4,1257.17Zm7.15,1.52v-6.39h6.33V1259a11.42,11.42,0,0,1-1.9,6.86,10.76,10.76,0,0,1-5.15,3.83,23.38,23.38,0,0,1-12.91.54,15.16,15.16,0,0,1-3.32-1.24,3.53,3.53,0,0,1-2-3.1,3.28,3.28,0,0,1,.47-1.8,3.56,3.56,0,0,1,1.11-1.11,15,15,0,0,0,3.86,1.81,16.55,16.55,0,0,0,5.13.79,10.16,10.16,0,0,0,6.23-1.65C2031.83,1262.84,2032.55,1261.09,2032.55,1258.69Z"/><path d="M2058.5,1227.68c3.92,0,7,.86,9.33,2.56s3.45,4.4,3.45,8.07v14.75a3.63,3.63,0,0,1-.63,2.27,5.58,5.58,0,0,1-1.77,1.46,18.23,18.23,0,0,1-4.28,1.65,23.28,23.28,0,0,1-5.91.69q-6.14,0-9.59-2.4a8,8,0,0,1-3.45-7,7.87,7.87,0,0,1,2.72-6.42,13.86,13.86,0,0,1,7.72-2.69l8.8-.88v-1.46a4.68,4.68,0,0,0-1.8-4.08,8.47,8.47,0,0,0-5-1.3,16.84,16.84,0,0,0-4.88.7,27.37,27.37,0,0,0-4.17,1.58,4.81,4.81,0,0,1-1.05-1.2,3,3,0,0,1-.47-1.59,3.22,3.22,0,0,1,2.21-3,17.63,17.63,0,0,1,4.08-1.27A25.43,25.43,0,0,1,2058.5,1227.68Zm.19,26.33a13.78,13.78,0,0,0,3.89-.48,10.5,10.5,0,0,0,2.37-.92v-8.16l-7,.76a8.77,8.77,0,0,0-4.4,1.23,3.52,3.52,0,0,0-1.49,3.07,3.84,3.84,0,0,0,1.65,3.29A8.41,8.41,0,0,0,2058.69,1254Z"/><path d="M2106.4,1238.76V1245h-6.52v-6a5.66,5.66,0,0,0-1.77-4.59,7.14,7.14,0,0,0-4.74-1.49,13,13,0,0,0-4,.57,14.9,14.9,0,0,0-3,1.33V1245h-6.52v-10.38a4.25,4.25,0,0,1,.6-2.37,6.35,6.35,0,0,1,1.87-1.74,20.74,20.74,0,0,1,4.65-2,21.82,21.82,0,0,1,6.43-.89q6.14,0,9.58,2.75C2105.25,1232.27,2106.4,1235,2106.4,1238.76Zm-26.58,3h6.52v16.33a6.65,6.65,0,0,1-1.23.34,8.58,8.58,0,0,1-1.74.16,4.29,4.29,0,0,1-2.66-.69,2.74,2.74,0,0,1-.89-2.28Zm20.06,0h6.52v16.33a6.84,6.84,0,0,1-1.26.34,8.7,8.7,0,0,1-1.71.16,4.25,4.25,0,0,1-2.69-.69,2.79,2.79,0,0,1-.86-2.28Z"/><path d="M2127.41,1257.17a16.21,16.21,0,0,1-6.8-1.42,11,11,0,0,1-5-4.69,16.87,16.87,0,0,1-1.9-8.57,16,16,0,0,1,1.9-8.16,12.18,12.18,0,0,1,5.28-5,17.37,17.37,0,0,1,7.82-1.68,19.71,19.71,0,0,1,5.69.79,16.69,16.69,0,0,1,4.24,1.87,6.74,6.74,0,0,1,1.65,1.58,3.62,3.62,0,0,1,.63,2.15v19.68h-6.39v-19.3a12.94,12.94,0,0,0-2.34-1,10.38,10.38,0,0,0-3.36-.48,8.44,8.44,0,0,0-6.23,2.38q-2.37,2.37-2.37,7.12,0,5.31,2.34,7.46a8.25,8.25,0,0,0,5.82,2.15,8.56,8.56,0,0,0,4.18-.88,11.82,11.82,0,0,0,2.59-1.9l.25,5.44a10.1,10.1,0,0,1-3.07,1.71A13.74,13.74,0,0,1,2127.41,1257.17Zm7.15,1.52v-6.39h6.33V1259a11.42,11.42,0,0,1-1.9,6.86,10.83,10.83,0,0,1-5.16,3.83,23.38,23.38,0,0,1-12.91.54,15.16,15.16,0,0,1-3.32-1.24,3.54,3.54,0,0,1-2-3.1,3.2,3.2,0,0,1,.47-1.8,3.56,3.56,0,0,1,1.11-1.11,14.82,14.82,0,0,0,3.86,1.81,16.48,16.48,0,0,0,5.12.79,10.21,10.21,0,0,0,6.24-1.65Q2134.55,1262.29,2134.56,1258.69Z"/><path d="M2152.28,1247l-.32-4.74,18-2.53a7.68,7.68,0,0,0-2.09-4.94,7,7,0,0,0-5.37-2,7.67,7.67,0,0,0-5.89,2.54c-1.56,1.68-2.36,4.09-2.4,7.21l.12,2.4a9.74,9.74,0,0,0,3.23,6.74,10.86,10.86,0,0,0,7.15,2.25,13.83,13.83,0,0,0,4.87-.82,15.59,15.59,0,0,0,3.55-1.77,3.53,3.53,0,0,1,1.23,1.2,3,3,0,0,1,.48,1.64,3.26,3.26,0,0,1-1.4,2.53,10.05,10.05,0,0,1-3.76,1.78,20.89,20.89,0,0,1-5.35.63,19.33,19.33,0,0,1-8.57-1.8,13,13,0,0,1-5.73-5.38,17.58,17.58,0,0,1-2-8.77,17.85,17.85,0,0,1,1.14-6.61,14.19,14.19,0,0,1,3.1-4.84,13.08,13.08,0,0,1,4.62-3,16,16,0,0,1,5.7-1,14.41,14.41,0,0,1,7,1.68,12.08,12.08,0,0,1,4.78,4.65,13.33,13.33,0,0,1,1.71,6.77,3.15,3.15,0,0,1-.76,2.34,3.35,3.35,0,0,1-2.15.89Z"/><path d="M1799.94,1376.67v8a5.08,5.08,0,0,1-1.74.95,7.77,7.77,0,0,1-2.5.38,7,7,0,0,1-3-.64,5.55,5.55,0,0,1-2.34-2.53l-10.57-18.35q-.88-1.57-1.86-3.42c-.66-1.22-1.28-2.41-1.87-3.57s-1.07-2.16-1.45-3l-6.21,1.52v-7.85a3.63,3.63,0,0,1,1.74-1.07,8.18,8.18,0,0,1,2.5-.38,7,7,0,0,1,3,.63,5.52,5.52,0,0,1,2.34,2.47l10.63,18.35c.59,1.06,1.22,2.21,1.87,3.45s1.27,2.44,1.84,3.57,1,2.14,1.42,3Zm-31.58-23,5.76-.32c.17,1.48.32,3.1.45,4.88s.21,3.56.25,5.37.06,3.55.06,5.19v16.71a9.94,9.94,0,0,1-1.23.28,9.16,9.16,0,0,1-1.74.16,4.21,4.21,0,0,1-2.72-.69,2.85,2.85,0,0,1-.83-2.28Zm31.58,25.31-5.82.25c-.38-3.37-.6-6.76-.67-10.15s-.09-6.68-.09-9.84v-12.09c.29-.08.72-.18,1.26-.28a9.06,9.06,0,0,1,1.78-.16,4.2,4.2,0,0,1,2.69.7,2.75,2.75,0,0,1,.85,2.27Z"/><path d="M1812.28,1374.33l-.32-4.74,18-2.53a7.72,7.72,0,0,0-2.08-4.94,7,7,0,0,0-5.38-2,7.67,7.67,0,0,0-5.89,2.54c-1.56,1.68-2.36,4.09-2.4,7.21l.12,2.4a9.74,9.74,0,0,0,3.23,6.74,10.87,10.87,0,0,0,7.15,2.25,13.92,13.92,0,0,0,4.88-.82,15.71,15.71,0,0,0,3.54-1.77,3.45,3.45,0,0,1,1.23,1.2,3,3,0,0,1,.48,1.64,3.28,3.28,0,0,1-1.39,2.53,10.1,10.1,0,0,1-3.77,1.78,20.84,20.84,0,0,1-5.35.63,19.37,19.37,0,0,1-8.57-1.8,13,13,0,0,1-5.73-5.38,17.58,17.58,0,0,1-2-8.77,17.85,17.85,0,0,1,1.14-6.61,14,14,0,0,1,3.1-4.84,12.91,12.91,0,0,1,4.62-3,16,16,0,0,1,5.69-1,14.48,14.48,0,0,1,7.06,1.68,12.06,12.06,0,0,1,4.77,4.65,13.33,13.33,0,0,1,1.71,6.77,3.15,3.15,0,0,1-.76,2.34,3.35,3.35,0,0,1-2.15.89Z"/><path d="M1838.73,1394.08a13.21,13.21,0,0,0,2.56-1.52,5.16,5.16,0,0,0,1.59-2.15,9.87,9.87,0,0,0,.53-3.55V1367.5h6.52v20.31a12,12,0,0,1-1.26,6,8,8,0,0,1-3,3.13,6.79,6.79,0,0,1-3.26.95,3.27,3.27,0,0,1-2.72-1.11A4.42,4.42,0,0,1,1838.73,1394.08Zm3.92-47.21a3.58,3.58,0,0,1,1.14-2.72,4,4,0,0,1,2.85-1.08,3.74,3.74,0,0,1,2.78,1.08,3.68,3.68,0,0,1,1.08,2.72,3.72,3.72,0,0,1-1.08,2.69,3.68,3.68,0,0,1-2.78,1.11,3.92,3.92,0,0,1-2.85-1.11A3.62,3.62,0,0,1,1842.65,1346.87Zm7.28,25.75-6.52-.5v-16c.3-.09.72-.18,1.27-.29a9.87,9.87,0,0,1,1.77-.16,4.29,4.29,0,0,1,2.63.67,2.83,2.83,0,0,1,.85,2.37Z"/><rect class="cls-4" x="1634.58" y="1450.17" width="102.83" height="102.83" rx="29.32"/><path d="M1787.92,1514.56a4.78,4.78,0,0,1-1.58.73,8.52,8.52,0,0,1-2.47.35,7.93,7.93,0,0,1-2.79-.45,2.5,2.5,0,0,1-1.58-1.33q-1-1.89-2.31-5.09t-2.81-7.18q-1.53-4-3-8.17t-2.75-8.16c-.85-2.66-1.58-5-2.22-7.15a5.59,5.59,0,0,1,1.52-1.11,4.75,4.75,0,0,1,2.22-.53,3.3,3.3,0,0,1,2.24.69,5,5,0,0,1,1.3,2.22q2.46,7.71,4.87,15t5.25,14.72h.26q1.64-4.62,3.45-9.94t3.48-10.95q1.66-5.62,3.07-11a6.46,6.46,0,0,1,1.36-.5,6.18,6.18,0,0,1,1.61-.19,3.83,3.83,0,0,1,2.37.69,2.54,2.54,0,0,1,.92,2.15,17.43,17.43,0,0,1-.66,3.67q-.67,2.6-1.84,6.11t-2.53,7.34q-1.36,3.83-2.78,7.47t-2.6,6.42A42.17,42.17,0,0,1,1787.92,1514.56Z"/><path d="M1807.53,1504.06l-.31-4.75,18-2.53a7.73,7.73,0,0,0-2.09-4.94,7,7,0,0,0-5.38-2,7.66,7.66,0,0,0-5.88,2.53c-1.56,1.69-2.37,4.09-2.41,7.21l.13,2.41a9.74,9.74,0,0,0,3.23,6.74,10.83,10.83,0,0,0,7.15,2.24,13.87,13.87,0,0,0,4.87-.82,15.29,15.29,0,0,0,3.54-1.77,3.56,3.56,0,0,1,1.24,1.2,3.13,3.13,0,0,1,.47,1.65,3.26,3.26,0,0,1-1.39,2.53,9.88,9.88,0,0,1-3.77,1.77,20.81,20.81,0,0,1-5.34.63,19.41,19.41,0,0,1-8.58-1.8,13,13,0,0,1-5.72-5.38,17.52,17.52,0,0,1-2-8.76,17.9,17.9,0,0,1,1.14-6.62,14,14,0,0,1,3.1-4.84,13.06,13.06,0,0,1,4.62-3,15.75,15.75,0,0,1,5.7-1,14.46,14.46,0,0,1,7,1.67,12.08,12.08,0,0,1,4.78,4.65,13.36,13.36,0,0,1,1.71,6.77,3.24,3.24,0,0,1-.76,2.35,3.39,3.39,0,0,1-2.15.88Z"/><path d="M1858,1509.43v-20.56h6.52v21.07a3.69,3.69,0,0,1-.57,2.15,5.71,5.71,0,0,1-1.84,1.58,17,17,0,0,1-3.73,1.68,17.4,17.4,0,0,1-5.57.79,20.48,20.48,0,0,1-8.45-1.64,12.68,12.68,0,0,1-5.72-5.1,16.84,16.84,0,0,1-2.09-8.82,18,18,0,0,1,2-9,12.56,12.56,0,0,1,5.41-5.16,16.7,16.7,0,0,1,7.47-1.67,15.17,15.17,0,0,1,4.46.63,10.81,10.81,0,0,1,3.32,1.58v5.7a10.35,10.35,0,0,0-2.91-1.87,10,10,0,0,0-4.11-.79,9.66,9.66,0,0,0-4.52,1.07,7.63,7.63,0,0,0-3.26,3.42,13.36,13.36,0,0,0-1.21,6.14c0,3.54.85,6.14,2.53,7.78a9.29,9.29,0,0,0,6.78,2.47,10.39,10.39,0,0,0,3.22-.44A11.59,11.59,0,0,0,1858,1509.43Zm6.52-19.11-6.52.07v-16.2c.25-.09.65-.19,1.2-.32a7.71,7.71,0,0,1,1.78-.19,4.17,4.17,0,0,1,2.68.7,2.85,2.85,0,0,1,.86,2.34Z"/><path d="M1885.68,1476.59a3.59,3.59,0,0,1,1.14-2.72,3.9,3.9,0,0,1,2.79-1.07,3.81,3.81,0,0,1,2.84,1.07,3.93,3.93,0,0,1,0,5.41,3.76,3.76,0,0,1-2.84,1.11,3.85,3.85,0,0,1-2.79-1.11A3.6,3.6,0,0,1,1885.68,1476.59Zm7.22,25.25h-6.52v-16a9.94,9.94,0,0,1,1.23-.28,9.53,9.53,0,0,1,1.81-.16,4.26,4.26,0,0,1,2.62.66,2.87,2.87,0,0,1,.86,2.38Zm-6.52-3.29h6.52v16.58a6.68,6.68,0,0,1-1.24.35,9.2,9.2,0,0,1-1.74.16,4.26,4.26,0,0,1-2.65-.7,2.69,2.69,0,0,1-.89-2.28Z"/><path d="M1908.59,1502.22l-6.52-.57v-27.46c.3-.09.72-.19,1.27-.32a7.69,7.69,0,0,1,1.77-.19,4.09,4.09,0,0,1,2.63.7,2.84,2.84,0,0,1,.85,2.34Zm-6.52-3.86,6.52.57v16.2a6.78,6.78,0,0,1-1.23.35,9.37,9.37,0,0,1-1.74.16,4.27,4.27,0,0,1-2.66-.7,2.72,2.72,0,0,1-.89-2.28Zm9.56,3.92-4.31-3,14.37-14.18a5.19,5.19,0,0,1,3.1,1,2.7,2.7,0,0,1,1.14,2.22,3.06,3.06,0,0,1-.73,2,16,16,0,0,1-2.18,2.09Zm-4.31-2.08,4.88-2.47,15.37,14.11a5.06,5.06,0,0,1-1.07,2.82,3.09,3.09,0,0,1-2.47,1,4.09,4.09,0,0,1-2.21-.63,9.74,9.74,0,0,1-2.09-1.84Z"/><path d="M1940.48,1502.22l-6.51-.57v-27.46c.29-.09.71-.19,1.26-.32a7.69,7.69,0,0,1,1.77-.19,4.09,4.09,0,0,1,2.63.7,2.84,2.84,0,0,1,.85,2.34Zm-6.51-3.86,6.51.57v16.2a6.32,6.32,0,0,1-1.23.35,9.37,9.37,0,0,1-1.74.16,4.29,4.29,0,0,1-2.66-.7,2.71,2.71,0,0,1-.88-2.28Zm9.55,3.92-4.3-3,14.36-14.18a5.19,5.19,0,0,1,3.1,1,2.7,2.7,0,0,1,1.14,2.22,3.06,3.06,0,0,1-.73,2,16,16,0,0,1-2.18,2.09Zm-4.3-2.08,4.87-2.47,15.38,14.11a5.14,5.14,0,0,1-1.08,2.82,3.07,3.07,0,0,1-2.47,1,4.09,4.09,0,0,1-2.21-.63,10,10,0,0,1-2.09-1.84Z"/><path d="M1967.63,1504.06l-.32-4.75,18-2.53a7.78,7.78,0,0,0-2.09-4.94,7,7,0,0,0-5.38-2,7.68,7.68,0,0,0-5.89,2.53q-2.34,2.54-2.4,7.21l.13,2.41a9.73,9.73,0,0,0,3.22,6.74A10.87,10.87,0,0,0,1980,1511a13.88,13.88,0,0,0,4.88-.82,15.71,15.71,0,0,0,3.54-1.77,3.45,3.45,0,0,1,1.23,1.2,3,3,0,0,1,.48,1.65,3.29,3.29,0,0,1-1.39,2.53,10,10,0,0,1-3.77,1.77,20.84,20.84,0,0,1-5.35.63,19.4,19.4,0,0,1-8.57-1.8,13,13,0,0,1-5.73-5.38,17.52,17.52,0,0,1-2-8.76,17.9,17.9,0,0,1,1.14-6.62,14,14,0,0,1,3.1-4.84,13.06,13.06,0,0,1,4.62-3,15.74,15.74,0,0,1,5.69-1,14.47,14.47,0,0,1,7.06,1.67,12.15,12.15,0,0,1,4.78,4.65,13.45,13.45,0,0,1,1.7,6.77,3.24,3.24,0,0,1-.75,2.35,3.4,3.4,0,0,1-2.16.88Z"/></svg>