<?xml version="1.0" encoding="utf-8"?>
<!-- Generator: Adobe Illustrator 23.0.6, SVG Export Plug-In . SVG Version: 6.00 Build 0)  -->
<svg version="1.1" id="Layer_1" xmlns="http://www.w3.org/2000/svg" xmlns:xlink="http://www.w3.org/1999/xlink" x="0px" y="0px"
	 viewBox="0 0 200 50" style="enable-background:new 0 0 200 50;" xml:space="preserve">
<style type="text/css">
	.st0{fill:none;stroke:#231F20;}
	.st1{fill:#231F20;}
	.st2{fill:none;stroke:#231F20;stroke-width:0.92;stroke-linejoin:round;}
</style>
<line class="st0" x1="7.48" y1="24.83" x2="192.04" y2="24.83"/>
<g>
	<path class="st1" d="M7.48,27.51c1.48,0,2.68-1.2,2.68-2.68c0-1.48-1.2-2.68-2.68-2.68c-1.48,0-2.68,1.2-2.68,2.68
		C4.8,26.31,6,27.51,7.48,27.51"/>
	<path class="st1" d="M192.04,27.51c1.48,0,2.68-1.2,2.68-2.68c0-1.48-1.2-2.68-2.68-2.68c-1.48,0-2.68,1.2-2.68,2.68
		C189.36,26.31,190.56,27.51,192.04,27.51"/>
</g>
<g>
	<path class="st1" d="M10.93,39.18l0.13-1.27h-0.07l-0.64,1.15l-1.37,2.29H8.65l-1.43-2.3L6.6,37.91H6.53l0.16,1.26v6.24H5.61v-9.38
		h1.03l2.22,3.56h0.03l2.14-3.56h1.01v9.38h-1.11V39.18z"/>
	<path class="st1" d="M13.65,36.03h6.43v0.99h-2.67v7.4h2.67v0.99h-6.43v-0.99h2.65v-7.4h-2.65V36.03z"/>
	<path class="st1" d="M22.09,36.03h1.11v8.39h3.79v-2.33h0.99v3.32h-5.9V36.03z"/>
	<path class="st1" d="M29.99,36.03c0.34-0.04,0.69-0.07,1.06-0.09c0.37-0.01,0.68-0.02,0.94-0.02c0.81,0,1.49,0.12,2.04,0.35
		c0.55,0.23,0.99,0.56,1.32,0.97c0.33,0.41,0.57,0.91,0.72,1.49c0.15,0.58,0.22,1.22,0.22,1.92c0,0.63-0.07,1.24-0.2,1.83
		c-0.13,0.58-0.37,1.1-0.7,1.55c-0.33,0.45-0.77,0.81-1.33,1.09c-0.56,0.27-1.25,0.41-2.09,0.41c-0.12,0-0.27,0-0.46-0.01
		c-0.19,0-0.38-0.01-0.57-0.03c-0.2-0.01-0.38-0.02-0.56-0.03c-0.18-0.01-0.31-0.02-0.4-0.04V36.03z M32.06,36.92
		c-0.12,0-0.28,0-0.48,0.01c-0.19,0.01-0.35,0.03-0.48,0.05v7.5c0.04,0.01,0.11,0.02,0.19,0.02c0.09,0,0.17,0.01,0.26,0.01
		c0.09,0.01,0.18,0.01,0.26,0.01c0.09,0.01,0.15,0.01,0.21,0.01c0.65,0,1.18-0.11,1.59-0.32c0.41-0.21,0.72-0.5,0.94-0.86
		c0.22-0.36,0.38-0.78,0.46-1.25c0.08-0.47,0.12-0.95,0.12-1.45c0-0.44-0.04-0.88-0.11-1.32c-0.07-0.44-0.22-0.84-0.44-1.2
		c-0.22-0.36-0.53-0.65-0.94-0.88C33.25,37.03,32.72,36.92,32.06,36.92z"/>
</g>
<g>
	<path class="st1" d="M144.61,36.03h6.43v0.99h-2.67v7.4h2.67v0.99h-6.43v-0.99h2.65v-7.4h-2.65V36.03z"/>
	<path class="st1" d="M154.48,39.54l-0.72-1.35h-0.05l0.14,1.35v5.87h-1.06v-9.38h0.73l3.76,5.84l0.69,1.29h0.07l-0.15-1.29v-5.84
		h1.06v9.38h-0.73L154.48,39.54z"/>
	<path class="st1" d="M160.42,36.03h6.97v2.45h-0.99v-1.46h-1.94v7.4h1.47v0.99h-4.06v-0.99h1.47v-7.4h-1.93v1.46h-0.99V36.03z"/>
	<path class="st1" d="M169.36,36.03h5.51v0.99h-4.39v3.07h4.06v0.99h-4.06v3.34h4.46v0.99h-5.57V36.03z"/>
	<path class="st1" d="M178.6,39.54l-0.72-1.35h-0.05l0.14,1.35v5.87h-1.06v-9.38h0.73l3.76,5.84l0.69,1.29h0.07l-0.15-1.29v-5.84
		h1.06v9.38h-0.73L178.6,39.54z"/>
	<path class="st1" d="M186.01,44.08c0.27,0.14,0.57,0.26,0.9,0.36c0.33,0.09,0.67,0.14,1.01,0.14c0.3,0,0.57-0.03,0.83-0.09
		c0.26-0.06,0.48-0.15,0.68-0.28s0.34-0.29,0.46-0.49c0.11-0.2,0.17-0.43,0.17-0.7c0-0.37-0.12-0.66-0.37-0.9
		c-0.25-0.23-0.55-0.44-0.92-0.62c-0.37-0.18-0.76-0.35-1.19-0.52s-0.83-0.37-1.19-0.6c-0.37-0.23-0.67-0.52-0.92-0.85
		c-0.25-0.34-0.37-0.76-0.37-1.28c0-0.37,0.07-0.7,0.22-0.99c0.15-0.29,0.35-0.54,0.62-0.75c0.27-0.21,0.59-0.36,0.97-0.48
		c0.38-0.11,0.8-0.17,1.27-0.17c0.54,0,1.02,0.04,1.46,0.11c0.44,0.08,0.79,0.18,1.05,0.3l0.03-0.01v0.03h0.01l-0.01,0.04v2.14
		h-0.99v-1.43c-0.22-0.05-0.47-0.1-0.74-0.13s-0.55-0.05-0.86-0.05c-0.29,0-0.56,0.04-0.8,0.11c-0.24,0.07-0.44,0.17-0.6,0.29
		c-0.17,0.12-0.29,0.26-0.38,0.42c-0.09,0.16-0.13,0.33-0.13,0.51c0,0.35,0.12,0.64,0.37,0.87c0.25,0.23,0.55,0.44,0.92,0.62
		c0.37,0.18,0.76,0.37,1.19,0.54c0.43,0.18,0.83,0.39,1.19,0.62c0.37,0.24,0.67,0.52,0.92,0.85c0.24,0.33,0.37,0.74,0.37,1.23
		c0,0.4-0.07,0.76-0.22,1.08c-0.15,0.32-0.36,0.6-0.63,0.83c-0.27,0.23-0.61,0.41-1.01,0.54c-0.4,0.12-0.85,0.19-1.35,0.19
		c-0.34,0-0.66-0.03-0.96-0.08c-0.3-0.05-0.58-0.12-0.84-0.2c-0.26-0.08-0.48-0.16-0.68-0.26c-0.2-0.09-0.36-0.16-0.48-0.23
		l0.01-0.04V42.6h0.99V44.08z"/>
</g>
<g>
	<path class="st2" d="M117.76,4.36h18.49c0,0,0.22,6.76-4.68,14.93h-9.21C122.36,19.28,118.13,13.79,117.76,4.36z"/>
	<path class="st2" d="M136.5,6.5c0,0,5.46,0.83,3.98,5.73c-1.56,4.08-6.98,3.27-6.98,3.27"/>
</g>
</svg>
